<svg width="110" height="30" viewBox="0 0 110 30" fill="none" xmlns="http://www.w3.org/2000/svg">
<rect x="0.5" y="0.5" width="9" height="9" fill="#5399F4" stroke="#E9E9E9"/>
<rect x="10.5" y="0.5" width="9" height="9" fill="#5399F4" stroke="#E9E9E9"/>
<rect x="20.5" y="0.5" width="9" height="9" fill="#5399F4" stroke="#E9E9E9"/>
<rect x="10.5" y="10.5" width="9" height="9" fill="#5399F4" stroke="#E9E9E9"/>
<rect x="10.5" y="20.5" width="9" height="9" fill="#5399F4" stroke="#E9E9E9"/>
<rect x="80.5" y="0.5" width="9" height="9" fill="#5399F4" stroke="#E9E9E9"/>
<rect x="90.5" y="0.5" width="9" height="9" fill="#5399F4" stroke="#E9E9E9"/>
<rect x="100.5" y="0.5" width="9" height="9" fill="#5399F4" stroke="#E9E9E9"/>
<rect x="90.5" y="10.5" width="9" height="9" fill="#5399F4" stroke="#E9E9E9"/>
<rect x="90.5" y="20.5" width="9" height="9" fill="#5399F4" stroke="#E9E9E9"/>
<rect x="40.5" y="0.5" width="9" height="9" fill="#5399F4" stroke="#E9E9E9"/>
<rect x="40.5" y="10.5" width="9" height="9" fill="#5399F4" stroke="#E9E9E9"/>
<rect x="50.5" y="10.5" width="9" height="9" fill="#5399F4" stroke="#E9E9E9"/>
<rect x="60.5" y="10.5" width="9" height="9" fill="#5399F4" stroke="#E9E9E9"/>
<rect x="40.5" y="20.5" width="9" height="9" fill="#5399F4" stroke="#E9E9E9"/>
</svg>
